<?xml version="1.0" encoding="utf-8"?>
<!-- Generator: Adobe Illustrator 22.1.0, SVG Export Plug-In . SVG Version: 6.00 Build 0)  -->
<svg version="1.1" id="Layer_1" xmlns="http://www.w3.org/2000/svg" xmlns:xlink="http://www.w3.org/1999/xlink" x="0px" y="0px"
	 viewBox="0 0 512 512" style="enable-background:new 0 0 512 512;" xml:space="preserve">
<g>
	<path d="M256,284.1c69.9,0,126.6-56.7,126.6-126.6S325.9,31,256,31S129.4,87.7,129.4,157.6S186.1,284.1,256,284.1z M368.5,312.2
		h-48.4c-19.5,9-41.2,14.1-64.1,14.1s-44.5-5.1-64.1-14.1h-48.4C81.4,312.2,31,362.6,31,424.8v14.1c0,23.3,18.9,42.2,42.2,42.2
		h365.6c23.3,0,42.2-18.9,42.2-42.2v-14.1C481,362.6,430.6,312.2,368.5,312.2z"/>
</g>
</svg>
